<?xml version="1.0" encoding="utf-8"?>
<!-- Generator: Adobe Illustrator 19.1.0, SVG Export Plug-In . SVG Version: 6.00 Build 0)  -->
<svg version="1.1" id="Layer_1" xmlns="http://www.w3.org/2000/svg" xmlns:xlink="http://www.w3.org/1999/xlink" x="0px" y="0px"
	 viewBox="-3275 1549 360 360" style="enable-background:new -3275 1549 360 360;" xml:space="preserve">
<style type="text/css">
	.st0{fill:#D15028;}
	.st1{fill:#1A333A;}
</style>
<g>
	<g>
		<g>
			<path class="st0" d="M-2980.2,1791.1h-231c-6.5,0-11.8-5.3-11.8-11.8v-94.5c0-6.5,5.3-11.8,11.8-11.8h231.1
				c6.5,0,11.8,5.3,11.8,11.8v94.5C-2968.4,1785.9-2973.7,1791.1-2980.2,1791.1z M-3208.1,1776.2h224.7V1688h-224.7V1776.2z"/>
			<g>
				<path class="st0" d="M-2977,1686.9h-236.9v-7.5c0-58.6,41-117.8,119.2-117.8c34.7,0,64.5,12.4,86.4,36
					c20.2,21.7,31.3,50.8,31.3,81.9V1686.9L-2977,1686.9z M-3198.8,1672h206.6c-1.6-24.5-11.1-47-27.1-64.3
					c-19-20.4-45.1-31.2-75.5-31.2c-31.4,0-58.1,10.8-77.2,31.2C-3187.8,1624.8-3197.2,1647.4-3198.8,1672z"/>
				<rect x="-3194.2" y="1683.2" class="st0" width="14.9" height="97.6"/>
				<path class="st0" d="M-3148.6,1788.3h-45.6v-112.5h45.6V1788.3z M-3179.3,1773.4h15.8v-82.7h-15.8V1773.4z"/>
				<path class="st0" d="M-3117.9,1788.3h-45.6v-112.5h45.6V1788.3z M-3148.6,1773.4h15.8v-82.7h-15.8
					C-3148.6,1690.7-3148.6,1773.4-3148.6,1773.4z"/>
				<path class="st0" d="M-3087.3,1788.3h-45.6v-112.5h45.6V1788.3L-3087.3,1788.3z M-3117.9,1773.4h15.8v-82.7h-15.8V1773.4z"/>
				<path class="st0" d="M-3056.6,1788.3h-45.6v-112.5h45.6V1788.3z M-3087.3,1773.4h15.8v-82.7h-15.8V1773.4z"/>
				<path class="st0" d="M-3025.9,1788.3h-45.6v-112.5h45.6V1788.3z M-3056.6,1773.4h15.8v-82.7h-15.8V1773.4z"/>
				<path class="st0" d="M-2995.2,1788.3h-45.6v-112.5h45.6V1788.3z M-3025.9,1773.4h15.8v-82.7h-15.8V1773.4L-3025.9,1773.4z"/>
				<rect x="-3010.1" y="1683.2" class="st0" width="14.9" height="97.6"/>
			</g>
		</g>
		<g>
			<path class="st1" d="M-2980.2,1791.1h-231c-6.5,0-11.8-5.3-11.8-11.8v-94.5c0-6.5,5.3-11.8,11.8-11.8h231.1
				c6.5,0,11.8,5.3,11.8,11.8v94.5C-2968.4,1785.9-2973.7,1791.1-2980.2,1791.1z M-3208.1,1776.2h224.7V1688h-224.7V1776.2z"/>
			<g>
				<path class="st1" d="M-2977,1686.9h-236.9v-7.5c0-58.6,41-117.8,119.2-117.8c34.7,0,64.5,12.4,86.4,36
					c20.2,21.7,31.3,50.8,31.3,81.9V1686.9L-2977,1686.9z M-3198.8,1672h206.6c-1.6-24.5-11.1-47-27.1-64.3
					c-19-20.4-45.1-31.2-75.5-31.2c-31.4,0-58.1,10.8-77.2,31.2C-3187.8,1624.8-3197.2,1647.4-3198.8,1672z"/>
				<rect x="-3194.2" y="1683.2" class="st1" width="14.9" height="97.6"/>
				<path class="st1" d="M-3148.6,1788.3h-45.6v-112.5h45.6V1788.3z M-3179.3,1773.4h15.8v-82.7h-15.8V1773.4z"/>
				<path class="st1" d="M-3117.9,1788.3h-45.6v-112.5h45.6V1788.3z M-3148.6,1773.4h15.8v-82.7h-15.8
					C-3148.6,1690.7-3148.6,1773.4-3148.6,1773.4z"/>
				<path class="st1" d="M-3087.3,1788.3h-45.6v-112.5h45.6V1788.3L-3087.3,1788.3z M-3117.9,1773.4h15.8v-82.7h-15.8V1773.4z"/>
				<path class="st1" d="M-3056.6,1788.3h-45.6v-112.5h45.6V1788.3z M-3087.3,1773.4h15.8v-82.7h-15.8V1773.4z"/>
				<path class="st1" d="M-3025.9,1788.3h-45.6v-112.5h45.6V1788.3z M-3056.6,1773.4h15.8v-82.7h-15.8V1773.4z"/>
				<path class="st1" d="M-2995.2,1788.3h-45.6v-112.5h45.6V1788.3z M-3025.9,1773.4h15.8v-82.7h-15.8V1773.4L-3025.9,1773.4z"/>
				<rect x="-3010.1" y="1683.2" class="st1" width="14.9" height="97.6"/>
			</g>
		</g>
	</g>
</g>
<g>
	<g>
		<path class="st1" d="M-3172.4,1884.6h-21.3l-6,14.1h-6.2l23-52.5l22.4,52.5h-6.2L-3172.4,1884.6z M-3174.6,1879.3l-8.4-20l-8.6,20
			H-3174.6z"/>
		<path class="st1" d="M-3144.4,1848.6c2.8,0,7.8,0.2,11.5,3.2c1.6,1.2,4.5,4.3,4.5,10.4c0,2.5-0.5,6.8-5,9.8
			c7,1.7,9.5,7.8,9.5,12.6s-2.4,8.7-5.1,10.8c-4,3.2-8.6,3.3-12,3.3h-12.5v-50.1H-3144.4z M-3147.8,1870.6h4.2
			c2.9,0,9.8-0.6,9.8-8.3c0-8.3-8.1-8.4-9.7-8.4h-4.4V1870.6z M-3147.8,1893.4h6.4c3.2,0,6.4-0.2,8.8-2.1c2-1.4,3.3-3.9,3.3-6.9
			c0-4-2.3-6.3-4.3-7.4c-1.9-1.1-4.5-1.5-8.5-1.5h-5.7V1893.4z"/>
		<path class="st1" d="M-3116.3,1873.7c0-14.9,11.6-25.9,26-25.9s26,11,26,25.9c0,14.9-11.6,25.9-26,25.9
			S-3116.3,1888.5-3116.3,1873.7z M-3110.6,1873.7c0,11.5,9.1,20.6,20.3,20.6s20.3-9.2,20.3-20.6s-9.1-20.6-20.3-20.6
			S-3110.6,1862.2-3110.6,1873.7z"/>
		<path class="st1" d="M-3048.5,1879.3c0,4.2,0,8.8,4,12.2c2,1.7,5.5,2.9,8.3,2.9s6.2-1.1,8.3-2.9c4-3.4,4-8,4-12.2v-30.7h5.6v32.2
			c0,4.2-0.5,8.3-3.2,12c-3,4.1-8.3,6.8-14.6,6.8c-6.4,0-11.6-2.6-14.6-6.8c-2.7-3.8-3.2-7.8-3.2-12v-32.2h5.6V1879.3z"/>
		<path class="st1" d="M-2993.2,1853.9v44.8h-5.6v-44.8h-12.2v-5.3h29.9v5.3H-2993.2z"/>
	</g>
</g>
</svg>
