<?xml version="1.0" encoding="utf-8"?>
<!-- Generator: Adobe Illustrator 19.1.0, SVG Export Plug-In . SVG Version: 6.00 Build 0)  -->
<svg version="1.1" id="Layer_1" xmlns="http://www.w3.org/2000/svg" xmlns:xlink="http://www.w3.org/1999/xlink" x="0px" y="0px"
	 viewBox="0 0 161.5 32.5" style="enable-background:new 0 0 161.5 32.5;" xml:space="preserve">
<style type="text/css">
	.st0{fill:url(#SVGID_1_);}
	.st1{fill:url(#SVGID_2_);}
</style>
<g>
	
		<linearGradient id="SVGID_1_" gradientUnits="userSpaceOnUse" x1="91.222" y1="68.84" x2="160.8096" y2="68.84" gradientTransform="matrix(-1 0 0 1 161.5 -54.09)">
		<stop  offset="0" style="stop-color:#F2DFD0;stop-opacity:0"/>
		<stop  offset="0.3395" style="stop-color:#F9F1EA;stop-opacity:0.3549"/>
		<stop  offset="0.6696" style="stop-color:#FFFFFF;stop-opacity:0.7"/>
	</linearGradient>
	<path class="st0" d="M0.7,6c0.1,1.6,1.5,2.8,3.1,2.8h25.7c0.7,0,1.2,0.5,1.2,1.2c0,0.7-0.5,1.2-1.2,1.2h0.1c-1.6,0-3,1.2-3.1,2.8
		c-0.1,1.8,1.3,3.3,3,3.3h15.3c0.9,0,1.7,0.8,1.7,1.7s-0.8,1.7-1.7,1.7H18.1c-1.6,0-3,1.2-3.1,2.8c-0.1,1.8,1.3,3.3,3,3.3h28.6h23.7
		v-24H46.6H3.7C2,2.8,0.6,4.2,0.7,6z"/>
	
		<linearGradient id="SVGID_2_" gradientUnits="userSpaceOnUse" x1="26.1932" y1="66.34" x2="124.3334" y2="66.34" gradientTransform="matrix(1 0 0 -1 36.4762 81.09)">
		<stop  offset="0" style="stop-color:#F2DFD0;stop-opacity:0"/>
		<stop  offset="0.3395" style="stop-color:#F9F1EA;stop-opacity:0.3549"/>
		<stop  offset="0.6696" style="stop-color:#FFFFFF;stop-opacity:0.7"/>
	</linearGradient>
	<path class="st1" d="M160.8,23.5c-0.1-1.6-1.5-2.8-3.1-2.8h-54.3c-0.7,0-1.2-0.5-1.2-1.2s0.5-1.2,1.2-1.2h28.5c1.6,0,3-1.2,3.1-2.8
		c0.1-1.8-1.3-3.3-3-3.3H88c-0.9,0-1.7-0.8-1.7-1.7s0.8-1.7,1.7-1.7h55.4c1.6,0,3-1.2,3.1-2.8c0.1-1.8-1.3-3.3-3-3.3H86.4H62.7v24
		h23.7h71.4C159.5,26.8,160.9,25.3,160.8,23.5z"/>
</g>
</svg>
